<?xml version="1.0" encoding="utf-8"?>
<!-- Generator: Adobe Illustrator 26.4.1, SVG Export Plug-In . SVG Version: 6.00 Build 0)  -->
<svg version="1.1" xmlns="http://www.w3.org/2000/svg" xmlns:xlink="http://www.w3.org/1999/xlink" x="0px" y="0px"
	 viewBox="0 0 478.9 451.5" style="enable-background:new 0 0 478.9 451.5;" xml:space="preserve">
<style type="text/css">
	.st0{fill:#DBCBA6;}
	.st1{font-family:'Lobster-Regular';}
	.st2{font-size:103.1353px;}
	.st3{fill:#3AAA35;}
	.st4{fill:#dbcba6;}
</style>
<g id="text">
	<text transform="matrix(1 0 0 1 18.7283 399.6559)" class="st0 st1 st2">Restaurant</text>
</g>
<g id="asses">
	<g id="blad-lb">
		<path class="st3" d="M86,185.7c34.1-4.8,45.9,9.7,50.6,10.7c3.2,0.7,7.3-2.6,10.8-4.4c2.7-1.4,5.2-3.1,8.5-3.6
			c-7.1,11-17.1,17.2-30,18.8C106,209.7,88.1,217.2,72,229c-0.8,0.6-1.5,1.4-1.9,3.1c23.4-14.4,49.9-17.6,75.9-22.3
			c-0.8,29.3-23.2,49.3-55.1,48.6c-14.5-0.3-29-1.7-43.5-2.6c-2-0.1-4.1,0.3-7.9,0.6C42.4,224.8,52.3,199,86,185.7z"/>
	</g>
	<g id="blad-lu">
		<path class="st3" d="M118.7,111.7c25.4,23.2,21.7,41.6,23.9,45.9c1.5,2.9,6.6,4,10.2,5.6c2.8,1.2,5.7,2,8.2,4.3
			c-13,1.5-24.1-2.3-33.6-11.2c-14.6-13.7-31.7-22.8-51-27.7c-1-0.2-2-0.3-3.6,0.5c26,8.9,45.3,27.3,65.5,44.5
			c-23.1,18-52.8,13.5-72.5-11.6c-9-11.4-17.1-23.5-25.7-35.2c-1.2-1.6-2.9-3-5.5-5.7C60.7,103,87,94.1,118.7,111.7z"/>
	</g>
	<g id="blad-rb">
		<path class="st3" d="M382.4,262.3c-26.5-21.9-23.8-40.4-26.3-44.6c-1.7-2.8-6.8-3.6-10.5-5c-2.8-1.1-5.8-1.7-8.4-3.8
			c12.9-2.2,24.2,1,34.1,9.4c15.3,12.9,32.8,21.2,52.4,25c1,0.2,2,0.2,3.6-0.7c-26.4-7.6-46.7-24.9-67.7-41
			c22.1-19.2,52-16.2,73.1,7.8c9.6,10.9,18.3,22.5,27.5,33.8c1.3,1.6,3,2.8,5.8,5.4C440.7,268,414.9,278.2,382.4,262.3z"/>
	</g>
	<g id="blad-ru">
		<path class="st3" d="M417.7,181c-32.3,11.7-46.9-0.1-51.7-0.1c-3.2,0-6.6,4-9.7,6.5c-2.4,1.9-4.4,4.1-7.6,5.3
			c4.7-12.3,13.2-20.3,25.5-24.6c18.9-6.5,34.9-17.5,48.2-32.4c0.7-0.8,1.2-1.7,1.2-3.4c-19.9,18.9-45.2,27.5-69.7,37.4
			c-5.3-28.8,12.5-53,43.9-58.9c14.3-2.7,28.7-4.3,43.1-6.4c2-0.3,4-1.2,7.6-2.2C452.2,133.7,447.9,161.1,417.7,181z"/>
	</g>
	<g id="kniv">
		<path class="st4" d="M384.6,294.8c-31.3-31.1-62.5-62.4-93.8-93.5c-1.4-1.4-24.7-19.2-31.8-28.3c-46.4-47.1-93.1-94.6-141.3-143.6
			c-0.9-0.9-2.3-0.4-2.6,0.7c-0.9,4.2-1.6,8.8-1.5,14.1c0.2,10,5,18,8.7,27.2c12.7,31.3,31,54.9,52.5,80.6
			c16.3,19.5,29.8,34.1,51.6,58.5c11.4,9.6,32.3-1.7,61.5,35.3c22,28,50.8,50,76.4,74.7c8.8,8.5,22.8,5.2,26.7-5.9
			C393.9,306.6,390.3,300.4,384.6,294.8z"/>
	</g>
	<g id="gaffel">
		<path class="st4" d="M402.6,52.9c-24.4,25.7-48,50.7-72.3,76.2c-3.4-3.2-6-5.8-9.3-9C346.2,95,370.6,70.7,395.4,46
			c-1.7-1.9-3.3-3.6-6.2-6.7c-25.2,25.3-49.7,49.8-74.4,74.6l-7.6-8.1c25-24.9,49.4-49.2,74.1-73.8c-1.7-1.8-3.4-3.8-6.6-7.3
			c-25.2,25.4-49.6,50-74.3,74.9l-7.4-7.7c25.9-24.3,51-47.8,75.8-71.1c-3.5-6.8-6.7-5.9-11.2-2.3c-20.2,16-40.5,31.8-61,47.4
			c-12.9,9.8-19.4,22.2-19.7,38.7c-0.5,28.9-43.7,63.4-43.9,63.1c-12.3,10.6-93.2,91.5-118.9,117.3c-2.2,2.3-5.5,4.4-6.1,7.1
			c-1.2,5.4-2.3,11.5-0.8,16.5c1.8,6.2,8.3,9.8,14.5,8.7c5.3-0.9,11-4.1,14.9-7.9c31.5-30.9,118.9-121.3,118.9-121.3
			c27.9-27.2,36.2-42.7,67.1-42.4c12.2,0.1,22.4-6,30.4-15.3c3.8-4.4,7.1-9.2,10.8-13.8c14.9-18.9,29.9-37.7,45.4-57.3
			C406.9,57.2,404.9,55.2,402.6,52.9z"/>
	</g>
</g>
</svg>
