<svg xmlns="http://www.w3.org/2000/svg" width="18.96" height="4.02" viewBox="0 0 18.96 4.02">
  <path id="icon-divider" d="M5.46-1.86A2.05,2.05,0,0,0,7.47.15,2.03,2.03,0,0,0,9.48-1.86,2.03,2.03,0,0,0,7.47-3.87,2.05,2.05,0,0,0,5.46-1.86Zm-7.47,0A2.05,2.05,0,0,0,0,.15,2.05,2.05,0,0,0,2.01-1.86,2.05,2.05,0,0,0,0-3.87,2.05,2.05,0,0,0-2.01-1.86Zm-7.47,0A2.05,2.05,0,0,0-7.47.15,2.05,2.05,0,0,0-5.46-1.86,2.05,2.05,0,0,0-7.47-3.87,2.05,2.05,0,0,0-9.48-1.86Z" transform="translate(9.48 3.87)" fill="#dbcba6"/>
</svg>
